<svg xmlns="http://www.w3.org/2000/svg" width="761" height="700.71"  xmlns:v="https://vecta.io/nano"><path d="M41.634 248.923c12.428 23.049 38.806 32.944 38.806 32.944s6.227-27.475-6.201-50.524-38.806-32.944-38.806-32.944-6.227 27.475 6.201 50.524z" fill="#2f2e41"/><path d="M50.177 241.34c22.438 13.5 31.08 40.314 31.08 40.314s-27.738 4.927-50.177-8.573S0 232.767 0 232.767s27.738-4.927 50.177 8.573z" fill="#e86f52"/><path d="M761 623.71c0 24.301-57.755 77-129 77s-129-52.699-129-77 57.755-11 129-11 129-13.301 129 11z" fill="#3f3d56"/><path d="M761 623.71c0 24.301-57.755 77-129 77s-129-52.699-129-77 57.755-11 129-11 129-13.301 129 11z" opacity=".1"/><ellipse cx="632" cy="623.71" rx="129" ry="44" fill="#3f3d56"/><path fill="#f1f1f1" d="M76 301.71h410v234H76z"/><ellipse cx="677.5" cy="40.71" rx="39.5" ry="37" fill="#2f2e41"/><path d="M562.5 271.21l-10 14s-48 10-30 25 44-14 44-14l14-18z" fill="#ffb8b8"/><path d="M614.5 112.21s-13 0-16 18-6 78-6 78-42 55-35 62 15 20 20 18 48-61 48-61z" fill="#e86f52"/><path d="M614.5 112.21s-13 0-16 18-6 78-6 78-42 55-35 62 15 20 20 18 48-61 48-61z" opacity=".1"/><path d="M654.5 61.21s-1 39-13 41-8 15-8 15 39 23 65 0l5-12s-18-13-10-31z" fill="#ffb8b8"/><g fill="#2f2e41"><path d="M587.5 301.21s-59 110-37 144 55 104 60 104 33-14 31-23-32-76-40-82-4-22-3-23 34-54 34-54-1 84 3 97-1 106 4 110 28 11 32 5 16-97 8-118l15-144z"/><path d="M641.5 568.21l-25 46s-36 26-11 30 40-6 40-6l22-16v-46z"/><path d="M607.5 542.21l13 31s5 13 0 16-19 21-10 23a29.3 29.3 0 0 0 5.495.546c15.144.255 29.735-5.683 40.398-16.439l8.107-8.107-27.385-63.474c.385.474-29.615 17.474-29.615 17.474z"/></g><circle cx="679.5" cy="51.21" r="34" fill="#ffb8b8"/><path d="M699 98.71l-10.5 10.5s-32 12-47 0c0 0 5.5-11.5 5.5-10.5s-43.5 7.5-47.5 25.5 3 49 3 49-28 132-17 135 114 28 113 9 8-97 8-97l35-67s-5-22-17-29-25.5-25.5-25.5-25.5z" fill="#e86f52"/><path d="M654.5 294.21l-13 8s-50 34-24 40 41-24 41-24l10-12z" fill="#ffb8b8"/><path d="M728.5 147.21l9 9s6 84-6 101-67 63-70 60-22-18-18-20 57.183-57.569 57.183-57.569L696.5 162.21z" opacity=".1"/><path d="M732.5 144.21l9 9s6 84-6 101-67 63-70 60-22-18-18-20 57.183-57.569 57.183-57.569L700.5 159.21z" fill="#e86f52"/><path d="M665.438 2.915s-11.558-4.203-27.318 4.728l8.405 2.101s-12.608 1.051-14.184 17.862h5.779s-3.677 14.71 0 18.912l2.364-4.465 6.829 13.659 1.576-6.829 3.152 1.051 2.101-11.032s5.253 7.88 9.456 8.405v-6.829s11.558 13.134 15.235 12.608l-5.253-7.355 7.355 1.576-3.152-5.253 18.912 5.253-4.203-5.253 13.134 4.203 6.304 2.627s8.931-20.488-3.677-34.673-30.995-17.336-42.815-11.295z" fill="#2f2e41"/><path d="M335.098 428.793q-1.26.794-2.607 1.474c-15.21 7.65-33.742 1.544-41.426-13.649l-6.652-13.191 4.465-2.251 6.652 13.191a25.84 25.84 0 1 0 46.147-23.273L313.741 335.7c-6.427-12.743-21.967-17.863-34.71-11.436s-17.863 21.967-11.436 34.71l9.891 19.612-4.465 2.251-9.891-19.612c-7.664-15.208-1.551-33.749 13.654-41.418s33.749-1.561 41.422 13.642l27.936 55.394a30.85 30.85 0 0 1-11.043 39.951zm2.702 68.372q-1.242.783-2.577 1.457c-15.21 7.65-33.743 1.544-41.426-13.649l-27.936-55.394c-7.67-15.209-1.559-33.756 13.65-41.426s33.756-1.559 41.426 13.65l7.339 14.552-4.465 2.251-7.339-14.552c-6.427-12.743-21.967-17.863-34.71-11.436s-17.863 21.967-11.436 34.71l27.936 55.394a25.84 25.84 0 1 0 46.147-23.273l-9.616-19.067 4.465-2.251 9.616 19.067a30.89 30.89 0 0 1-11.073 39.968z" fill="#3f3d56"/><path d="M537 537.71H75v-257h462zm-460-2h458v-253H77z" fill="#2f2e41"/></svg>