<svg xmlns="http://www.w3.org/2000/svg" xmlns:xlink="http://www.w3.org/1999/xlink" width="842.984" height="770.564" xmlns:v="https://vecta.io/nano"><path d="M786.949 457.466c34.169-86.141 26.434-183.26-20.94-262.906l-477.347 66.094 457.451-95.336a297.76 297.76 0 0 0-236.38-116.376c-164.729 0-298.268 133.539-298.268 298.268a300.83 300.83 0 0 0 2.776 40.702zm-555.548-2.867c43.112 111.662 151.463 190.88 278.332 190.88 119.048 0 221.791-69.753 269.628-170.611z" fill="#f2f2f2"/><path d="M771.989 558.337c0 117.214-172.82 212.227-385.994 212.227-114.523 0-217.397-27.417-288.08-70.976-46.12-28.412-78.544-63.701-91.551-102.698C2.165 584.469.016 571.448 0 558.337 0 441.135 319.872-87.549 385.994 346.122s385.994 95.013 385.994 212.215z" fill="#e86f52"/><path d="M577.822 635.302c0 43.278-136.677 78.369-305.286 78.369-64.941 0-125.144-5.205-174.622-14.083-46.12-28.412-78.544-63.701-91.551-102.698 52.343-23.85 151.93-39.956 266.172-39.956 168.609 0 305.286 35.09 305.286 78.369z" opacity=".1"/><path d="M357.458 188.915c-24.194-40.881-72.061-42.786-72.061-42.786s-46.643-5.965-76.565 56.297c-27.889 58.033-66.38 114.066-6.197 127.651l10.871-33.835 6.732 36.354a235.59 235.59 0 0 0 25.75.44c64.451-2.081 125.831.609 123.855-22.519-2.627-30.745 10.894-82.267-12.385-121.603zM199.199 546.929c-.897 4.462-1.561 8.998-3.086 13.286-1.514 4.257-3.851 8.194-5.236 12.496-4.413 13.71 1.705 28.997 11.474 39.579a64.59 64.59 0 0 0 31.489 18.698c8.814 2.217 17.978 2.536 27.061 2.844 25.151.853 50.95 1.616 74.782-6.467a129.93 129.93 0 0 0 21.726-9.87 16.28 16.28 0 0 0 5.638-4.439c1.818-2.588 2.05-5.944 2.034-9.106-.053-10.662-2.215-21.27-1.702-31.92.284-5.899 1.388-11.794.845-17.674-1.232-13.337-11.823-25.274-24.919-28.086-6.761-1.452-13.773-.661-20.656.001a526.69 526.69 0 0 1-53.758 2.404c-18.339-.117-36.564-2.916-54.812-3.209-5.396-.086-5.287 1.577-7.005 6.8a127.22 127.22 0 0 0-3.876 14.665z" fill="#2f2e41"/><use xlink:href="#B" fill="#a0616a"/><use xlink:href="#B" y="1.17" opacity=".1"/><circle cx="287.078" cy="233.701" r="54.975" fill="#a0616a"/><path d="M258.954 356.831c2.865 2.995 5.901 5.96 9.656 7.716 3.735 1.746 7.942 2.181 12.063 2.297 9.91.279 20.653-1.537 27.546-8.661 8.886-9.184 8.594-23.996 15.559-34.71a7.73 7.73 0 0 1 2.245-2.455c1.168-.636 2.489-.94 3.818-.878 8.797-.082 16.46 5.623 23.376 11.061 3.098 2.436 6.273 4.959 8.228 8.382a28.41 28.41 0 0 1 2.775 8.497c3.432 16.753 4.543 33.883 5.647 50.949.609 9.426 1.219 18.861 1.174 28.307-.149 31.12-7.382 61.719-14.575 91.997-.927 3.901-2.195 8.262-5.743 10.131a14.16 14.16 0 0 1-5.011 1.223c-20.602 2.42-41.247 4.842-61.988 5.161q-12.141.187-24.272-.588c-1.392-.018-2.772-.259-4.089-.713a11.53 11.53 0 0 1-4.458-3.785c-11.219-14.138-11.881-33.683-11.81-51.731q.263-66.189 4.73-132.273c.246-3.636.3-8.053-2.321-10.913 4.718 7.553 11.28 14.538 17.451 20.988z" fill="#d0cde1"/><g fill="#575a89"><path d="M247.309 293.354c-1.857 3.361-15.546 11.707-18.189 14.493-14.766 15.564-41.715 14.98-55.22 31.65-4.751 5.865-7.22 13.235-9.035 20.561-2.568 10.362-3.939 21.663.363 31.434 4.139 9.401 12.852 15.901 18.767 24.299 6.495 9.221 9.416 20.417 12.214 31.343 2.066 8.067 4.15 16.335 3.345 24.624-.915 9.424-5.475 18.054-8.168 27.131s-3.157 19.889 3.068 27.023c4.574 5.241 11.748 7.319 18.606 8.488 8.753 1.492 17.648 1.917 26.519 2.309 7.839.346 16.48.414 22.506-4.612 4.755-3.965 6.822-10.4 7.089-16.585s-1.019-12.316-1.826-18.455c-.836-6.364-1.157-12.783-1.425-19.195q-1.808-43.159-.494-86.373c.183-5.995.404-12.063-.874-17.923-1.681-7.707-5.846-14.594-9.322-21.675-6.898-14.055-10.161-27.708-9.094-43.33 1.053-15.419 7.777-27.166 1.17-15.206zm77.199 1.17c2.828 2.907 12.438 3.865 16.036 5.737 3.305 1.72 6.962 2.618 10.541 3.65a136.85 136.85 0 0 1 37.032 16.996c2.374 1.389 4.473 3.202 6.193 5.349 2.013 2.8 2.743 6.294 3.426 9.674 1.762 8.726 3.532 17.557 3.136 26.45-.42 9.44-3.264 18.583-6.085 27.601l-10.54 33.698c-7.868 25.153-15.785 50.553-17.999 76.815a180.69 180.69 0 0 0 1.622 43.628c.232 1.45.426 3.112-.532 4.226a4.16 4.16 0 0 1-2.581 1.188c-5.087.795-10.01-1.798-14.62-4.094a161.89 161.89 0 0 0-44.629-14.603 103.75 103.75 0 0 0 13.862-28.575 172.94 172.94 0 0 0 4.188-19.652l4.903-28.359c1.798-10.399 3.599-20.825 4.206-31.36a39.26 39.26 0 0 0-.682-11.813c-.939-3.744-2.806-7.175-4.478-10.654-8.081-16.809-11.872-35.991-8.693-54.368 1.391-8.043 4.095-16.096 2.968-24.18-1.084-7.772.043-13.813-1.952-21.504-8.188-31.581-.642-11.317 4.679-5.848z"/><path d="M173.761 366.074c-3.684 7.645-9.843 14.157-11.939 22.38a48.89 48.89 0 0 0-1.041 11.697c-.05 5.918-.082 11.956 1.735 17.589 1.17 3.626 3.073 6.97 4.445 10.525 1.911 4.967 2.763 10.278 2.5 15.594-.37 7.364-2.872 14.512-3.067 21.882-.307 11.591 5.054 22.487 10.285 32.835a24.14 24.14 0 0 1 35.085-11.487c1.38-1.274 1.527-3.367 1.581-5.245q.58-20.17 1.119-40.342c.566-20.798 1.106-41.874-3.679-62.122-2.16-9.142-5.521-18.249-11.683-25.34-3.244-3.734-14.259-13.568-19.584-9.386-2.395 1.881-1.835 7.001-2.215 9.594a40.71 40.71 0 0 1-3.542 11.824zm228.187-22.031c1.742 5.426 1.847 11.223 1.881 16.922q.106 17.437-.462 34.869c-.194 5.949-.461 11.981-2.265 17.654-1.19 3.741-3.026 7.249-4.254 10.978-3.682 11.174-1.67 23.293-1.355 35.054a39.83 39.83 0 0 1-.965 11.339c-1.943 7.291-7.165 13.182-10.81 19.789-3.462 6.274-5.55 13.307-9.685 19.16s-11.291 10.491-18.228 8.694c-5.256-1.361-8.991-6.014-11.574-10.789a52.92 52.92 0 0 1-5.472-34.328c2.594-14.274 10.978-26.937 14.002-41.127 4.152-19.485-2.159-39.592-1.971-59.514a28.77 28.77 0 0 1 1.254-9.225c1.586-4.551 4.993-8.184 8.14-11.834a149.41 149.41 0 0 0 10.94-14.357c2.253-3.36 5.313-12.002 9.307-12.72 8.918-1.604 19.304 12.546 21.517 19.436z"/></g><path d="M127.488 538.263c-4.931-1.239-10.013-1.78-15.094-1.605-10.801.597-20.824 5.808-27.517 14.307s-9.41 19.464-7.459 30.104c1.05 5.725 3.408 11.123 5.981 16.344 4.003 8.124 8.804 16.229 16.215 21.435 4.335 3.045 9.352 4.944 14.31 6.812l39.031 14.704 17.283 6.332a338.06 338.06 0 0 0 90.273 17.946c9.372.558 18.886.713 28.029-1.42 2.17-.506 4.484-1.261 5.74-3.101a9.83 9.83 0 0 0 1.283-4.236l2.402-16.814c.338-2.367.664-4.859-.204-7.088-1.1-2.826-3.858-4.603-6.488-6.114-25.66-14.738-55.621-22.868-77.219-43.096-5.085-4.762-9.34-12.31-15.517-15.544-7.005-3.668-15.256-5.761-22.497-9.142-15.83-7.389-31.394-15.88-48.551-19.824z" fill="#2f2e41"/><path d="M166.454 560.93c13.796 4.323 72.041 34.272 82.025 44.728-1.338.482-46.742-24.963-48.104-25.372-12.384-3.717-24.837-7.458-36.597-12.897-2.366-1.094-15.37-6.237-14.781-9.222.665-3.368 15.009 1.995 17.458 2.763z" opacity=".1"/><g fill="#a0616a"><path d="M338.564 673.362a3.24 3.24 0 0 0 2.187-.644 3.38 3.38 0 0 0 .684-2.517q-.032-11.453-.064-22.906c-6.587-3.138-13.955-4.144-21.187-5.111l-33.744-4.51c.775.104-5.276 14.534-4.348 16.46 1.635 3.395 14.133 6.405 17.66 8.008 12.261 5.573 25.003 11.7 38.813 11.22z"/><path d="M232.694 647.217c-6.371 1.015-13.482 1.912-17.608 6.871-5.232 6.289-3.005 15.665-.509 23.456a10.1 10.1 0 0 0 2.17 4.268c1.703 1.68 4.314 1.927 6.702 2.078 5.81.368 11.994.656 17.07-2.194 2.404-1.35 4.391-3.322 6.631-4.929 3.744-2.491 7.859-4.372 12.192-5.574 7.966-2.506 16.166-4.196 24.473-5.044 3.256-.332 6.578-.546 9.641-1.699s5.9-3.442 6.79-6.592c1.176-4.163-1.243-8.407-3.564-12.057-2.89-4.548-5.953-9.336-10.262-12.684-6.287-4.884-9.398-1.135-15.731 1.991a133.47 133.47 0 0 1-37.995 12.109z"/></g><g fill="#2f2e41"><path d="M216.044 652.955l-40.454-11.957c-4.92-1.454-9.924-2.921-15.054-2.917s-10.498 1.686-13.825 5.591c-3.137 3.682-4.035 8.714-4.817 13.487l-1.673 10.211c-.85 5.189-1.702 10.478-.937 15.68s3.421 10.399 8.037 12.918c5.598 3.054 12.459 1.562 18.707.285a203.63 203.63 0 0 1 38.336-4.111c4.842-.058 9.921.003 14.2-2.265 5.086-2.696 8.129-8.395 8.652-14.128.796-8.722-2.111-20.115-11.171-22.793zm138.422-10.419c5.244-.919 9.873-3.9 14.898-5.659 7.073-2.476 14.738-2.476 22.232-2.449 2.751.01 5.681.072 7.971 1.596 3.301 2.198 4.147 6.596 4.708 10.521q1.693 11.843 3.387 23.686c.637 4.455 1.27 9.029.277 13.419s-3.985 8.621-8.341 9.753c-5.29 1.375-10.476-2.004-15.471-4.224-12.484-5.548-26.996-4.13-40.012-8.277-2.416-.77-5.003-1.946-5.988-4.282a9.75 9.75 0 0 1-.466-4.093c.223-7.613-1.383-18.009.909-25.285 2.061-6.544 10.042-4.705 15.896-4.705z"/><path d="M440.076 528.73a70.25 70.25 0 0 1 24.747-1.691c6.616.729 13.432 2.57 18.262 7.149 5.879 5.573 7.768 14.193 7.926 22.293.258 16.132-5.092 31.854-15.138 44.479a40.36 40.36 0 0 1-8.655 8.331c-3.543 2.216-7.319 4.036-11.26 5.426l-87.408 34.476c-22.995 9.07-46.071 18.166-70.056 24.145a5.46 5.46 0 0 1-7.347-2.664 181.09 181.09 0 0 1-19.157-35.044 2.36 2.36 0 0 1 1.044-3.723l61.824-35.522c4.428-2.544 8.906-5.126 12.583-8.67a31.24 31.24 0 0 0 6.46-8.994c1.282-2.677 1.401-8.993 3.038-10.972 1.603-1.937 7.085-2.092 9.617-2.854 3.571-1.094 7.068-2.416 10.47-3.958 13.83-6.187 26.145-15.176 39.402-22.42a101.1 101.1 0 0 1 23.647-9.789z"/></g><path d="M405.027 555.258c-10.622 7.978-24.375 15.311-34.902 23.499-3.593 2.794-63.486 36.467-64.332 40.939 9.821 1.655 72.383-42.112 81.334-46.479s16.886-10.526 24.749-16.639c2.004-1.558 10.496-6.241 4.743-7.982-3.24-.981-9.2 5.068-11.592 6.663z" opacity=".1"/><path d="M331.943 295.297h-93.238c-7.888 0-14.283 6.395-14.283 14.283v5.23h-1.013v11.697h1.013v8.188h-1.013v7.018h1.013v86.306c0 7.888 6.395 14.283 14.283 14.283h93.238c7.888 0 14.283-6.395 14.283-14.283V309.579c0-7.888-6.395-14.283-14.283-14.283z" fill="#3f3d56"/><path fill="#2f2e41" d="M346.761 184.974l-47.29-24.771-65.305 10.134-13.511 59.675 33.634-1.294 9.396-21.924v21.563l15.519-.597 9.008-34.904 5.629 37.156 55.172-1.126-2.252-43.912z"/><path d="M186.133 521c2.336 3.488 5.074 6.9 8.827 8.782 4.69 2.351 10.478 1.932 15.174-.407a26.71 26.71 0 0 0 10.951-10.979c5.139-9.076 6.204-19.935 5.563-30.345s-2.864-20.661-3.848-31.044c-.715-7.548-.773-15.141-.831-22.722-.012-1.593.014-3.31.955-4.595 1.138-1.555 3.223-1.983 5.07-2.532 10.373-3.082 17.258-12.804 22.194-22.433 3.296-6.43 6.162-13.458 5.526-20.656s-5.809-14.448-12.997-15.182c-5.926-.605-11.398 3.159-15.672 7.307-10.783 10.531-17.714 24.381-19.677 39.325-.938 7.318-.67 14.835-2.66 21.94-4.25 15.169-17.547 24.47-24.174 38.119-7.302 15.04-3.272 32.116 5.6 45.423zm195.68-57.953a28.67 28.67 0 0 1-16.077 15.448 22.21 22.21 0 0 1-13.976.856 15.5 15.5 0 0 1-10.238-9.157 24.67 24.67 0 0 1-1.153-6.878c-.665-10.23-.408-20.771 3.308-30.325 1.433-3.685 3.366-7.18 4.497-10.968 1.29-4.321 1.496-8.881 1.693-13.386l1.221-27.911a18.15 18.15 0 0 0-.415-6.052c-1.218-4.039-4.993-6.663-8.456-9.072-8.364-5.817-16.629-12.604-20.682-21.951-1.24-2.86-2.059-6.039-1.429-9.092 1.143-5.542 6.736-9.13 12.264-10.339 7.309-1.598 14.954-.142 21.164 4.032a27.43 27.43 0 0 1 11.725 18.075c.547 3.15.539 6.367.86 9.548.679 6.747 2.821 13.252 4.161 19.9 3.301 16.375 1.59 33.302 4.855 49.674 2.729 13.689 13.02 22.621 6.678 37.6z" fill="#a0616a"/><circle cx="286.572" cy="346.391" r="11.697" fill="#d0cde1"/><g fill="#3f3d56"><path d="M780.321 358.914c-25.345 0-48.194 15.267-57.893 38.683s-4.338 50.368 13.584 68.29 44.874 23.283 68.29 13.584 38.683-32.548 38.683-57.893c0-16.619-6.602-32.558-18.354-44.31s-27.69-18.354-44.31-18.354zm30.969 46.77a42.52 42.52 0 0 1 .05 2.063c0 21.141-16.074 45.517-45.5 45.517a44.66 44.66 0 0 1-24.458-7.229c1.265.152 2.538.229 3.812.231 7.2.013 14.193-2.4 19.854-6.849-6.841-.129-12.843-4.592-14.936-11.107.989.199 1.995.299 3.004.297 1.421 0 2.837-.189 4.208-.561-7.461-1.508-12.825-8.066-12.823-15.678v-.198c2.221 1.248 4.714 1.934 7.262 1.997-7.035-4.69-9.211-14.042-4.968-21.356a45.28 45.28 0 0 0 32.941 16.718c-.28-1.195-.419-2.42-.413-3.647-.008-6.562 3.999-12.462 10.102-14.874s13.06-.846 17.541 3.948a31.75 31.75 0 0 0 10.15-3.878c-1.193 3.704-3.691 6.848-7.031 8.846 3.167-.384 6.259-1.235 9.176-2.525-2.144 3.213-4.843 6.018-7.971 8.285z"/><circle cx="760.172" cy="184.616" r="11.135"/><path d="M774.091 156.779h-27.837c-7.678.022-13.896 6.241-13.919 13.919v27.837c.022 7.678 6.241 13.896 13.919 13.919h27.837c7.678-.023 13.896-6.241 13.919-13.919v-27.837c-.023-7.678-6.241-13.896-13.919-13.919zm-13.919 44.54c-9.224 0-16.702-7.478-16.702-16.702s7.478-16.702 16.702-16.702 16.702 7.478 16.702 16.702a16.71 16.71 0 0 1-16.702 16.702zm18.094-30.621a4.18 4.18 0 0 1-4.176-4.176 4.18 4.18 0 0 1 4.176-4.176 4.18 4.18 0 0 1 4.176 4.176c.003 1.108-.436 2.172-1.22 2.956s-1.847 1.223-2.956 1.22zm-18.809-51.557c-36.484 0-66.061 29.576-66.061 66.061s29.576 66.061 66.061 66.061 66.061-29.576 66.061-66.061a66.06 66.06 0 0 0-66.061-66.061zm34.119 79.394c-.031 10.749-8.737 19.455-19.486 19.486h-27.837c-10.749-.031-19.455-8.737-19.486-19.486v-27.837c.031-10.749 8.737-19.455 19.486-19.486h27.837c10.749.031 19.455 8.737 19.486 19.486zM491.492 0c-35.899 0-65 29.101-65 65s29.101 65 65 65 65-29.101 65-65a65 65 0 0 0-65-65zm20.495 39.331h-8.321c-5.681 0-6.765 2.687-6.765 6.647v8.415h13.53l-1.768 13.2h-11.762v35.828h-15.086V67.593h-10.819v-13.2h10.819v-9.759c0-11.691 8.109-18.056 18.551-18.056 4.997 0 10.371.377 11.62.542z"/></g><defs ><path id="B" d="M251.243 283.651c-.881 4.615-1.834 9.398-4.607 13.19-3.19 4.363-8.392 6.856-11.825 11.031-5.166 6.285-5.463 15.129-5.484 23.265-.02 7.495.133 15.489 4.312 21.71 2.713 4.038 6.84 6.868 10.874 9.587 15.674 10.563 32.611 21.315 51.509 21.664 7.83.144 16.226-1.878 21.378-7.776a32.1 32.1 0 0 0 5.176-9.234c4.832-11.911 7.761-24.508 8.68-37.33.43-6.032.389-12.24-1.652-17.932-2.296-6.401-6.938-11.667-10.006-17.736-3.627-7.216-4.953-15.371-3.8-23.365a2.52 2.52 0 0 0-.133-1.693c-.512-.577-1.264-.882-2.033-.824l-37.471-2.698a81.54 81.54 0 0 1-10.404-1.19c-2.02-.411-7.355-3.28-9.281-2.517-3.565 1.412-4.501 18.022-5.232 21.848z"/></defs></svg>